<mxfile host="app.diagrams.net" agent="Mozilla/5.0 (Windows NT 10.0; Win64; x64) AppleWebKit/537.36 (KHTML, like Gecko) Chrome/134.0.0.0 Safari/537.36 Edg/134.0.0.0" version="26.2.14">
  <diagram name="Page-1" id="L-BWoXoE_FVBhvypiTmE">
    <mxGraphModel dx="2058" dy="1154" grid="1" gridSize="10" guides="1" tooltips="1" connect="1" arrows="1" fold="1" page="1" pageScale="1" pageWidth="827" pageHeight="1169" math="0" shadow="0">
      <root>
        <mxCell id="0" />
        <mxCell id="1" parent="0" />
        <mxCell id="XmfdZuT5_hzsOrEvLpTD-1" value="Solved Cube" style="ellipse;whiteSpace=wrap;html=1;" vertex="1" parent="1">
          <mxGeometry x="650" y="440" width="120" height="80" as="geometry" />
        </mxCell>
        <mxCell id="XmfdZuT5_hzsOrEvLpTD-2" value="Mixed Cube" style="ellipse;whiteSpace=wrap;html=1;" vertex="1" parent="1">
          <mxGeometry x="190" y="440" width="120" height="80" as="geometry" />
        </mxCell>
        <mxCell id="XmfdZuT5_hzsOrEvLpTD-24" style="edgeStyle=orthogonalEdgeStyle;rounded=0;orthogonalLoop=1;jettySize=auto;html=1;exitX=0;exitY=0.5;exitDx=0;exitDy=0;entryX=1;entryY=0.5;entryDx=0;entryDy=0;" edge="1" parent="1" source="XmfdZuT5_hzsOrEvLpTD-7" target="XmfdZuT5_hzsOrEvLpTD-16">
          <mxGeometry relative="1" as="geometry" />
        </mxCell>
        <mxCell id="XmfdZuT5_hzsOrEvLpTD-7" value="U1" style="ellipse;whiteSpace=wrap;html=1;" vertex="1" parent="1">
          <mxGeometry x="530" y="340" width="60" height="40" as="geometry" />
        </mxCell>
        <mxCell id="XmfdZuT5_hzsOrEvLpTD-8" value="U4" style="ellipse;whiteSpace=wrap;html=1;" vertex="1" parent="1">
          <mxGeometry x="530" y="580" width="60" height="40" as="geometry" />
        </mxCell>
        <mxCell id="XmfdZuT5_hzsOrEvLpTD-9" value="U3" style="ellipse;whiteSpace=wrap;html=1;" vertex="1" parent="1">
          <mxGeometry x="530" y="500" width="60" height="40" as="geometry" />
        </mxCell>
        <mxCell id="XmfdZuT5_hzsOrEvLpTD-10" value="U2" style="ellipse;whiteSpace=wrap;html=1;" vertex="1" parent="1">
          <mxGeometry x="530" y="420" width="60" height="40" as="geometry" />
        </mxCell>
        <mxCell id="XmfdZuT5_hzsOrEvLpTD-11" value="" style="endArrow=classic;html=1;rounded=0;entryX=1;entryY=0.5;entryDx=0;entryDy=0;" edge="1" parent="1" target="XmfdZuT5_hzsOrEvLpTD-9">
          <mxGeometry width="50" height="50" relative="1" as="geometry">
            <mxPoint x="650" y="480" as="sourcePoint" />
            <mxPoint x="590" y="300" as="targetPoint" />
          </mxGeometry>
        </mxCell>
        <mxCell id="XmfdZuT5_hzsOrEvLpTD-12" value="" style="endArrow=classic;html=1;rounded=0;exitX=0;exitY=0.5;exitDx=0;exitDy=0;entryX=1;entryY=0.5;entryDx=0;entryDy=0;" edge="1" parent="1" source="XmfdZuT5_hzsOrEvLpTD-1" target="XmfdZuT5_hzsOrEvLpTD-7">
          <mxGeometry width="50" height="50" relative="1" as="geometry">
            <mxPoint x="670" y="695" as="sourcePoint" />
            <mxPoint x="620" y="570" as="targetPoint" />
          </mxGeometry>
        </mxCell>
        <mxCell id="XmfdZuT5_hzsOrEvLpTD-13" value="" style="endArrow=classic;html=1;rounded=0;entryX=0.983;entryY=0.675;entryDx=0;entryDy=0;entryPerimeter=0;exitX=0;exitY=0.5;exitDx=0;exitDy=0;" edge="1" parent="1" source="XmfdZuT5_hzsOrEvLpTD-1" target="XmfdZuT5_hzsOrEvLpTD-10">
          <mxGeometry width="50" height="50" relative="1" as="geometry">
            <mxPoint x="640" y="500" as="sourcePoint" />
            <mxPoint x="620" y="585" as="targetPoint" />
          </mxGeometry>
        </mxCell>
        <mxCell id="XmfdZuT5_hzsOrEvLpTD-15" value="" style="endArrow=classic;html=1;rounded=0;exitX=0;exitY=0.5;exitDx=0;exitDy=0;entryX=1;entryY=0.5;entryDx=0;entryDy=0;" edge="1" parent="1" source="XmfdZuT5_hzsOrEvLpTD-1" target="XmfdZuT5_hzsOrEvLpTD-8">
          <mxGeometry width="50" height="50" relative="1" as="geometry">
            <mxPoint x="660" y="520" as="sourcePoint" />
            <mxPoint x="610" y="390" as="targetPoint" />
          </mxGeometry>
        </mxCell>
        <mxCell id="XmfdZuT5_hzsOrEvLpTD-16" value="U1-U1" style="ellipse;whiteSpace=wrap;html=1;" vertex="1" parent="1">
          <mxGeometry x="440" y="340" width="60" height="40" as="geometry" />
        </mxCell>
        <mxCell id="XmfdZuT5_hzsOrEvLpTD-17" value="U1-U4" style="ellipse;whiteSpace=wrap;html=1;" vertex="1" parent="1">
          <mxGeometry x="440" y="580" width="60" height="40" as="geometry" />
        </mxCell>
        <mxCell id="XmfdZuT5_hzsOrEvLpTD-18" value="U1-U3" style="ellipse;whiteSpace=wrap;html=1;" vertex="1" parent="1">
          <mxGeometry x="440" y="500" width="60" height="40" as="geometry" />
        </mxCell>
        <mxCell id="XmfdZuT5_hzsOrEvLpTD-19" value="U1-U2" style="ellipse;whiteSpace=wrap;html=1;" vertex="1" parent="1">
          <mxGeometry x="440" y="420" width="60" height="40" as="geometry" />
        </mxCell>
        <mxCell id="XmfdZuT5_hzsOrEvLpTD-20" value="U1-U2-U1" style="ellipse;whiteSpace=wrap;html=1;" vertex="1" parent="1">
          <mxGeometry x="350" y="340" width="60" height="40" as="geometry" />
        </mxCell>
        <mxCell id="XmfdZuT5_hzsOrEvLpTD-21" value="U1-U2-U4" style="ellipse;whiteSpace=wrap;html=1;" vertex="1" parent="1">
          <mxGeometry x="350" y="580" width="60" height="40" as="geometry" />
        </mxCell>
        <mxCell id="XmfdZuT5_hzsOrEvLpTD-22" value="U1-U2-U3" style="ellipse;whiteSpace=wrap;html=1;" vertex="1" parent="1">
          <mxGeometry x="350" y="500" width="60" height="40" as="geometry" />
        </mxCell>
        <mxCell id="XmfdZuT5_hzsOrEvLpTD-23" value="U1-U2-U2" style="ellipse;whiteSpace=wrap;html=1;" vertex="1" parent="1">
          <mxGeometry x="350" y="420" width="60" height="40" as="geometry" />
        </mxCell>
        <mxCell id="XmfdZuT5_hzsOrEvLpTD-25" value="" style="endArrow=classic;html=1;rounded=0;exitX=0;exitY=0.5;exitDx=0;exitDy=0;entryX=1;entryY=0.5;entryDx=0;entryDy=0;" edge="1" parent="1" source="XmfdZuT5_hzsOrEvLpTD-7" target="XmfdZuT5_hzsOrEvLpTD-19">
          <mxGeometry width="50" height="50" relative="1" as="geometry">
            <mxPoint x="450" y="750" as="sourcePoint" />
            <mxPoint x="500" y="700" as="targetPoint" />
          </mxGeometry>
        </mxCell>
        <mxCell id="XmfdZuT5_hzsOrEvLpTD-26" value="" style="endArrow=classic;html=1;rounded=0;exitX=0;exitY=0.5;exitDx=0;exitDy=0;entryX=1;entryY=0.5;entryDx=0;entryDy=0;" edge="1" parent="1" source="XmfdZuT5_hzsOrEvLpTD-7" target="XmfdZuT5_hzsOrEvLpTD-18">
          <mxGeometry width="50" height="50" relative="1" as="geometry">
            <mxPoint x="540" y="370" as="sourcePoint" />
            <mxPoint x="510" y="450" as="targetPoint" />
          </mxGeometry>
        </mxCell>
        <mxCell id="XmfdZuT5_hzsOrEvLpTD-27" value="" style="endArrow=classic;html=1;rounded=0;exitX=0;exitY=0.5;exitDx=0;exitDy=0;entryX=1;entryY=0.5;entryDx=0;entryDy=0;" edge="1" parent="1" source="XmfdZuT5_hzsOrEvLpTD-7" target="XmfdZuT5_hzsOrEvLpTD-17">
          <mxGeometry width="50" height="50" relative="1" as="geometry">
            <mxPoint x="540" y="370" as="sourcePoint" />
            <mxPoint x="510" y="530" as="targetPoint" />
          </mxGeometry>
        </mxCell>
        <mxCell id="XmfdZuT5_hzsOrEvLpTD-28" value="" style="endArrow=classic;html=1;rounded=0;exitX=0;exitY=0.5;exitDx=0;exitDy=0;entryX=1;entryY=0.5;entryDx=0;entryDy=0;" edge="1" parent="1" source="XmfdZuT5_hzsOrEvLpTD-19" target="XmfdZuT5_hzsOrEvLpTD-20">
          <mxGeometry width="50" height="50" relative="1" as="geometry">
            <mxPoint x="540" y="370" as="sourcePoint" />
            <mxPoint x="510" y="610" as="targetPoint" />
          </mxGeometry>
        </mxCell>
        <mxCell id="XmfdZuT5_hzsOrEvLpTD-29" value="" style="endArrow=classic;html=1;rounded=0;entryX=1;entryY=0.5;entryDx=0;entryDy=0;" edge="1" parent="1" target="XmfdZuT5_hzsOrEvLpTD-23">
          <mxGeometry width="50" height="50" relative="1" as="geometry">
            <mxPoint x="440" y="440" as="sourcePoint" />
            <mxPoint x="420" y="370" as="targetPoint" />
          </mxGeometry>
        </mxCell>
        <mxCell id="XmfdZuT5_hzsOrEvLpTD-30" value="" style="endArrow=classic;html=1;rounded=0;entryX=1;entryY=0.5;entryDx=0;entryDy=0;exitX=0;exitY=0.5;exitDx=0;exitDy=0;" edge="1" parent="1" source="XmfdZuT5_hzsOrEvLpTD-19" target="XmfdZuT5_hzsOrEvLpTD-22">
          <mxGeometry width="50" height="50" relative="1" as="geometry">
            <mxPoint x="450" y="450" as="sourcePoint" />
            <mxPoint x="420" y="450" as="targetPoint" />
          </mxGeometry>
        </mxCell>
        <mxCell id="XmfdZuT5_hzsOrEvLpTD-31" value="" style="endArrow=classic;html=1;rounded=0;entryX=1;entryY=0.5;entryDx=0;entryDy=0;exitX=0;exitY=0.5;exitDx=0;exitDy=0;" edge="1" parent="1" source="XmfdZuT5_hzsOrEvLpTD-19" target="XmfdZuT5_hzsOrEvLpTD-21">
          <mxGeometry width="50" height="50" relative="1" as="geometry">
            <mxPoint x="450" y="450" as="sourcePoint" />
            <mxPoint x="420" y="530" as="targetPoint" />
          </mxGeometry>
        </mxCell>
        <mxCell id="XmfdZuT5_hzsOrEvLpTD-33" value="" style="endArrow=classic;html=1;rounded=0;entryX=1;entryY=0.5;entryDx=0;entryDy=0;exitX=0;exitY=0.5;exitDx=0;exitDy=0;" edge="1" parent="1" source="XmfdZuT5_hzsOrEvLpTD-20" target="XmfdZuT5_hzsOrEvLpTD-2">
          <mxGeometry width="50" height="50" relative="1" as="geometry">
            <mxPoint x="340" y="370" as="sourcePoint" />
            <mxPoint x="310" y="530" as="targetPoint" />
          </mxGeometry>
        </mxCell>
      </root>
    </mxGraphModel>
  </diagram>
</mxfile>
